<svg xmlns="http://www.w3.org/2000/svg" xmlns:xlink="http://www.w3.org/1999/xlink" width="37" height="27" viewBox="0 0 37 27">
  <defs>
    <path id="discover-dark-a" d="M10.886788,27 L34.3214425,27 C35.3123351,27 36.1156123,26.1956029 36.1156123,25.1939502 L36.1156123,18.2835706 C36.1156123,18.2835706 27.2054461,24.3050636 10.886788,27 Z"/>
  </defs>
  <g fill="none" fill-rule="evenodd" transform="translate(.254)">
    <rect width="35.216" height="26.1" x=".45" y=".45" stroke="#E6772F" stroke-width=".9" rx="1.8"/>
    <use fill="#E6772F" xlink:href="#discover-dark-a"/>
    <path fill="#1A1919" d="M5.2558242,13.7365858 C4.95207479,13.9836554 4.56539817,14.0916942 3.94705795,14.0916942 L3.69047814,14.0916942 L3.69047814,11.1433072 L3.94705795,11.1433072 C4.56539817,11.1433072 4.93723919,11.2440742 5.2558242,11.5034366 C5.58468001,11.7714561 5.78229782,12.1849125 5.78229782,12.6125662 C5.78229782,13.0422977 5.58468001,13.4704709 5.2558242,13.7365858 L5.2558242,13.7365858 Z M4.13858935,10.388074 L2.7347231,10.388074 L2.7347231,14.8472736 L4.13003035,14.8472736 C4.87257118,14.8472736 5.40855481,14.6864273 5.87834882,14.331492 C6.43639565,13.9111101 6.76753386,13.2763818 6.76753386,12.6187992 C6.76753386,11.3024221 5.68719782,10.388074 4.13858935,10.388074 L4.13858935,10.388074 Z"/>
    <polygon fill="#1A1919" points="7.208 10.388 8.16 10.388 8.16 14.847 7.208 14.847"/>
    <path fill="#1A1919" d="M10.4979266 12.0971309C9.92333238 11.9052927 9.75538578 11.777516 9.75538578 11.5365062 9.75538578 11.256367 10.0555214 11.0439253 10.4682554 11.0439253 10.7543162 11.0439253 10.989974 11.148155 11.241038 11.4028428L11.7380307 10.8093217C11.3273888 10.4803572 10.835912 10.3137973 10.3001186 10.3137973 9.43318696 10.3137973 8.77243214 10.8628217 8.77243214 11.5887943 8.77243214 12.2051697 9.07960515 12.5178591 9.97601779 12.8147928 10.3507118 12.9333931 10.541102 13.0144223 10.6375334 13.0693074 10.8284942 13.1816747 10.9235942 13.3426941 10.9235942 13.5288188 10.9235942 13.8915453 10.6078622 14.1581797 10.1810534 14.1581797 9.72666558 14.1581797 9.35900896 13.9511052 9.13894755 13.5622346L8.52307993 14.1051991C8.96339295 14.6924872 9.49119797 14.9549662 10.2183326 14.9549662 11.2100354 14.9549662 11.9088303 14.3505373 11.9088303 13.4896893 11.9088303 12.7803381 11.5847294 12.4588186 10.4979266 12.0971309M12.2089659 12.6187992C12.2089659 13.9301554 13.3397049 14.9463092 14.7953056 14.9463092 15.2057572 14.9463092 15.5576272 14.8725519 15.9909028 14.6864273L15.9909028 13.6616165C15.6080302 14.0118771 15.2719468 14.1500421 14.8371496 14.1500421 13.8753081 14.1500421 13.1940117 13.5165259 13.1940117 12.6125662 13.1940117 11.7584707 13.8973713 11.0818427 14.7953056 11.0818427 15.248362 11.0818427 15.594526 11.2279722 15.9909028 11.5834269L15.9909028 10.5598281C15.5722726 10.3671242 15.2287714 10.287307 14.8148962 10.287307 13.3676643 10.287307 12.2089659 11.3233719 12.2089659 12.6187992"/>
    <polyline fill="#1A1919" points="23.731 13.382 22.424 10.388 21.383 10.388 23.459 14.96 23.972 14.96 26.088 10.388 25.055 10.388 23.731 13.382"/>
    <polyline fill="#1A1919" points="26.522 14.847 29.231 14.847 29.231 14.092 27.478 14.092 27.478 12.888 29.164 12.888 29.164 12.133 27.478 12.133 27.478 11.143 29.231 11.143 29.231 10.388 26.522 10.388 26.522 14.847"/>
    <path fill="#1A1919" d="M31.0967776,12.4385614 L30.819466,12.4385614 L30.819466,11.0898071 L31.112374,11.0898071 C31.7092216,11.0898071 32.0289479,11.3178314 32.0289479,11.7522376 C32.0289479,12.1985904 31.7092216,12.4385614 31.0967776,12.4385614 L31.0967776,12.4385614 Z M33.0126623,11.7037587 C33.0126623,10.8687084 32.3834807,10.388074 31.2805108,10.388074 L29.8616188,10.388074 L29.8616188,14.8472736 L30.819466,14.8472736 L30.819466,13.0544174 L30.9436666,13.0544174 L32.2634645,14.8472736 L33.4387103,14.8472736 L31.8975197,12.9678478 C32.6178071,12.8338381 33.0126623,12.3861002 33.0126623,11.7037587 L33.0126623,11.7037587 Z"/>
    <path fill="#E6772F" d="M21.5173542,12.6291876 C21.5173542,13.9130146 20.3746326,14.9535811 18.9637289,14.9535811 C17.5532057,14.9535811 16.4102938,13.9130146 16.4102938,12.6291876 C16.4102938,11.3451874 17.5532057,10.3044478 18.9637289,10.3044478 C20.3746326,10.3044478 21.5173542,11.3451874 21.5173542,12.6291876"/>
  </g>
</svg>
