<svg xmlns="http://www.w3.org/2000/svg" width="37" height="27" viewBox="0 0 37 27">
  <g fill="none" fill-rule="evenodd" transform="translate(.884)">
    <rect width="36.116" height="27" fill="#0072CE" rx="1.8"/>
    <path fill="#FFF" d="M33.5908426 15.5995124L31.9958684 15.5995124C31.836625 15.5995124 31.7308308 15.6054388 31.6417119 15.6652513 31.5493905 15.7241858 31.5138313 15.8116548 31.5138313 15.9271094 31.5138313 16.0644039 31.5917965 16.1577992 31.7052105 16.1981864 31.797532 16.230123 31.8967002 16.2394516 32.0424709 16.2394516L32.5167778 16.2520725C32.9953915 16.2638156 33.3148722 16.3455776 33.5096749 16.5449893 33.5451236 16.5727555 33.5664371 16.6039239 33.5908426 16.6350922L33.5908426 15.5995124zM33.5908426 17.9989276C33.3782604 18.3078675 32.9640287 18.4644776 32.4032533 18.4644776L30.7131969 18.4644776 30.7131969 17.6840613 32.3964065 17.6840613C32.5633802 17.6840613 32.6802176 17.6622215 32.750563 17.5939584 32.8115217 17.5376578 32.8540381 17.4558957 32.8540381 17.356574 32.8540381 17.2505576 32.8115217 17.1663811 32.7471396 17.1158971 32.683641 17.0603648 32.5912091 17.0351228 32.4388125 17.0351228 31.6170855 17.0073566 30.5919422 17.0603648 30.5919422 15.9086718 30.5919422 15.3807851 30.9292025 14.8251322 31.8475578 14.8251322L33.5907322 14.8251322 33.5907322 14.1010165 31.9711316 14.1010165C31.4823581 14.1010165 31.1273181 14.2173491 30.8758637 14.3982134L30.8758637 14.1010165 28.4802551 14.1010165C28.0971653 14.1010165 27.6474849 14.1953996 27.4347922 14.3982134L27.4347922 14.1010165 23.1568645 14.1010165 23.1568645 14.3982134C22.8164016 14.1541344 22.2419326 14.1010165 21.9767845 14.1010165L19.1550176 14.1010165 19.1550176 14.3982134C18.8856731 14.1389892 18.2866881 14.1010165 17.9215988 14.1010165L14.7635654 14.1010165 14.0408962 14.8782501 13.3640564 14.1010165 8.646608 14.1010165 8.646608 19.1792647 13.2752688 19.1792647 14.0199141 18.3897393 14.7213802 19.1792647 17.57451 19.1817889 17.57451 17.9871846 17.8550081 17.9871846C18.2335702 17.9930012 18.6800481 17.977856 19.0739602 17.808625L19.0739602 19.179155 21.4272733 19.179155 21.4272733 17.855597 21.5407977 17.855597C21.6856849 17.855597 21.6999307 17.8615234 21.6999307 18.0054027L21.6999307 19.1790452 28.8488782 19.1790452C29.3027551 19.1790452 29.7771724 19.0635906 30.0398909 18.8540821L30.0398909 19.1790452 32.3075085 19.1790452C32.7793858 19.1790452 33.24022 19.1133063 33.5908426 18.9449532L33.5908426 17.9989276 33.5908426 17.9989276zM30.0999661 16.5449893C30.2703632 16.7202565 30.3616908 16.941508 30.3616908 17.316077 30.3616908 18.0990175 29.8694939 18.4644776 28.9869186 18.4644776L27.2823956 18.4644776 27.2823956 17.6840613 28.9800718 17.6840613C29.1460516 17.6840613 29.2637725 17.6622215 29.3375413 17.5939584 29.3977269 17.5376578 29.440906 17.4558957 29.440906 17.356574 29.440906 17.2505576 29.3941931 17.1663811 29.3341179 17.1158971 29.2671959 17.0603648 29.1748745 17.0351228 29.0224779 17.0351228 28.2040638 17.0073566 27.1791413 17.0603648 27.1791413 15.9086718 27.1791413 15.3807851 27.5128679 14.8251322 28.4303397 14.8251322L30.1847782 14.8251322 30.1847782 15.5997319 28.5794233 15.5997319C28.4202903 15.5997319 28.3168152 15.6056583 28.2288007 15.6654708 28.1329454 15.7244053 28.0973862 15.8118743 28.0973862 15.9273289 28.0973862 16.0646234 28.1787748 16.1580187 28.2888759 16.1984059 28.3811973 16.2303425 28.4803655 16.239671 28.6294492 16.239671L29.1005535 16.252292C29.5756334 16.2638156 29.9017401 16.3454679 30.0999661 16.5449893L30.0999661 16.5449893zM22.2031708 16.3202259C22.0861126 16.3892572 21.9413358 16.3951836 21.7710491 16.3951836L20.707917 16.3951836 20.707917 15.5777823 21.7855157 15.5777823C21.9413358 15.5777823 22.0972662 15.5810748 22.2031708 15.6435212 22.3165848 15.7024558 22.3843903 15.8151667 22.3843903 15.9708988 22.3843903 16.1266309 22.3165848 16.2520725 22.2031708 16.3202259L22.2031708 16.3202259zM22.7317 16.7731549C22.9265026 16.8446007 23.085746 16.9726763 23.1603983 17.0786926 23.2839721 17.2563743 23.3018621 17.4222031 23.305396 17.7429958L23.305396 18.4644776 22.4267963 18.4644776 22.4267963 18.0091341C22.4267963 17.7901874 22.4479993 17.4659925 22.2853325 17.2967614 22.1574518 17.1663811 21.9625388 17.1352127 21.6432789 17.1352127L20.7080275 17.1352127 20.7080275 18.4644776 19.8286548 18.4644776 19.8286548 14.8250225 21.8491248 14.8250225C22.2921793 14.8250225 22.6148626 14.8444478 22.9020971 14.9967777 23.1782883 15.1626066 23.3519984 15.3897844 23.3519984 15.8049602 23.351888 16.3858551 22.9620618 16.6822837 22.7317 16.7731549L22.7317 16.7731549zM23.8372381 14.8250225L26.7580629 14.8250225 26.7580629 15.5776726 24.70877 15.5776726 24.70877 16.2393418 26.708037 16.2393418 26.708037 16.9818951 24.70877 16.9818951 24.70877 17.7060108 26.7580629 17.7093033 26.7580629 18.4644776 23.8372381 18.4644776 23.8372381 14.8250225 23.8372381 14.8250225zM17.9327525 16.5046021L16.801815 16.5046021 16.801815 15.5777823 17.9429123 15.5777823C18.2588592 15.5777823 18.4781778 15.7057482 18.4781778 16.0240167 18.4781778 16.3387733 18.269019 16.5046021 17.9327525 16.5046021L17.9327525 16.5046021zM15.9301726 18.1334783L14.5865424 16.6510056 15.9301726 15.2156147 15.9301726 18.1334783 15.9301726 18.1334783zM12.4602782 17.7060108L10.3086146 17.7060108 10.3086146 16.9818951 12.2299164 16.9818951 12.2299164 16.2393418 10.3086146 16.2393418 10.3086146 15.5776726 12.5026842 15.5776726 13.4599117 16.6382749 12.4602782 17.7060108 12.4602782 17.7060108zM19.4177361 16.0240167C19.4177361 17.035013 18.6587347 17.2437533 17.8937699 17.2437533L16.801815 17.2437533 16.801815 18.4644776 15.1008257 18.4644776 14.023227 17.2596667 12.9033327 18.4644776 9.43686178 18.4644776 9.43686178 14.8250225 12.9566715 14.8250225 14.0333868 16.0179806 15.1465447 14.8250225 17.9429123 14.8250225C18.6374212 14.8250225 19.4177361 15.0160933 19.4177361 16.0240167L19.4177361 16.0240167zM5.26152569 10.6309022L4.66254071 9.18036611 4.06697913 10.6309022 5.26152569 10.6309022zM18.4570852 10.0532998C18.3368244 10.125843 18.1945876 10.1282575 18.0241905 10.1282575L16.9610584 10.1282575 16.9610584 9.320075 18.0386571 9.320075C18.1911642 9.320075 18.3502971 9.32687936 18.4536618 9.38570416 18.5671863 9.43871232 18.6374212 9.55153302 18.6374212 9.70737483 18.6374212 9.86639933 18.5706097 9.99436522 18.4570852 10.0532998L18.4570852 10.0532998zM26.041357 10.6309022L25.4357461 9.18036611 24.8334482 10.6309022 26.041357 10.6309022 26.041357 10.6309022zM11.9038097 12.2009536L11.0066574 12.2009536 11.0033444 9.35124336 9.73436649 12.2009536 8.96597831 12.2009536 7.6936874 9.34871916 7.6936874 12.2009536 5.91373905 12.2009536 5.57747259 11.3893689 3.75533909 11.3893689 3.41564923 12.2009536 2.46515814 12.2009536 4.03230338 8.56237649 5.33253368 8.56237649 6.82094067 12.0073586 6.82094067 8.56237649 8.24927247 8.56237649 9.3945662 11.0307133 10.446655 8.56237649 11.9036992 8.56237649 11.9036992 12.2009536 11.9038097 12.2009536zM15.4794982 12.2009536L12.556023 12.2009536 12.556023 8.56237649 15.4794982 8.56237649 15.4794982 9.320075 13.4311993 9.320075 13.4311993 9.97592759 15.4303558 9.97592759 15.4303558 10.7217733 13.4311993 10.7217733 13.4311993 11.4484132 15.4794982 11.4484132 15.4794982 12.2009536 15.4794982 12.2009536zM19.6014955 9.54231421C19.6014955 10.1224408 19.2118902 10.422162 18.9848413 10.5121551 19.176331 10.5845886 19.3398813 10.7125545 19.4177361 10.8185709 19.5413099 10.9995449 19.5626233 11.1612034 19.5626233 11.4861665L19.5626233 12.2009536 18.6799377 12.2009536 18.6766247 11.7420982C18.6766247 11.5231515 18.6977173 11.2082851 18.5384738 11.0332375 18.4105932 10.9052716 18.2156801 10.8775054 17.9006167 10.8775054L16.9611688 10.8775054 16.9611688 12.2009536 16.086103 12.2009536 16.086103 8.56237649 18.0989532 8.56237649C18.5462041 8.56237649 18.8757342 8.5741195 19.1586618 8.73665593 19.4355157 8.89919235 19.6014955 9.136467 19.6014955 9.54231421L19.6014955 9.54231421zM21.0019983 12.2009536L20.1090425 12.2009536 20.1090425 8.56237649 21.0019983 8.56237649 21.0019983 12.2009536 21.0019983 12.2009536zM31.3614347 12.2009536L30.1212796 12.2009536 28.4624755 9.46999043 28.4624755 12.2009536 26.6802081 12.2009536 26.3396347 11.3893689 24.5216977 11.3893689 24.1912841 12.2009536 23.1672451 12.2009536C22.7418598 12.2009536 22.2032813 12.1074485 21.8982672 11.7985086 21.5907131 11.4895686 21.4306967 11.0711005 21.4306967 10.4094312 21.4306967 9.86980151 21.5263311 9.37648535 21.9024636 8.98666131 22.1853912 8.69626875 22.6284457 8.56237649 23.2315167 8.56237649L24.0787536 8.56237649 24.0787536 9.34202455 23.2492963 9.34202455C22.929926 9.34202455 22.74959 9.38921609 22.57588 9.55756914 22.4266859 9.71077701 22.3243151 10.0004013 22.3243151 10.3817748 22.3243151 10.7715988 22.4022803 11.0526628 22.5649472 11.2362708 22.6996746 11.3802599 22.9445031 11.4239395 23.1748649 11.4239395L23.5678936 11.4239395 24.8013123 8.56248624 26.1125859 8.56248624 27.5942565 12.0040661 27.5942565 8.56248624 28.926733 8.56248624 30.4650554 11.0965619 30.4650554 8.56248624 31.3614347 8.56248624 31.3614347 12.2009536 31.3614347 12.2009536zM2.45499836 12.915631L3.95025216 12.915631 4.28740207 12.1074485 5.04220707 12.1074485 5.37847353 12.915631 8.32050132 12.915631 8.32050132 12.2977511 8.58310941 12.9182649 10.1103886 12.9182649 10.3729967 12.2885323 10.3729967 12.915631 17.6845006 12.915631 17.6810772 11.5890001 17.822541 11.5890001C17.9215988 11.5924023 17.9505321 11.6015114 17.9505321 11.7640478L17.9505321 12.915631 21.7320665 12.915631 21.7320665 12.6068008C22.0370806 12.7692275 22.5114979 12.915631 23.1357719 12.915631L24.7266601 12.915631 25.067123 12.1074485 25.821928 12.1074485 26.1548815 12.915631 29.2205935 12.915631 29.2205935 12.1479454 29.684851 12.915631 32.1415287 12.915631 32.1415287 7.84089474 29.7102504 7.84089474 29.7102504 8.44022724 29.3697875 7.84089474 26.8750107 7.84089474 26.8750107 8.44022724 26.5623768 7.84089474 23.1925341 7.84089474C22.6284457 7.84089474 22.1326046 7.91914489 21.7320665 8.13721368L21.7320665 7.84089474 19.4065824 7.84089474 19.4065824 8.13721368C19.1517046 7.91245027 18.8043949 7.84089474 18.418213 7.84089474L9.92232232 7.84089474 9.35227061 9.15161219 8.76686881 7.84089474 6.09087251 7.84089474 6.09087251 8.44022724 5.79690164 7.84089474 3.51470703 7.84089474 2.45488793 10.2536992 2.45488793 12.915631 2.45499836 12.915631z"/>
  </g>
</svg>
