<svg xmlns="http://www.w3.org/2000/svg" xmlns:xlink="http://www.w3.org/1999/xlink"><defs>
    <path id="discover-dark-a" d="M10.886788,27 L34.3214425,27 C35.3123351,27 36.1156123,26.1956029 36.1156123,25.1939502 L36.1156123,18.2835706 C36.1156123,18.2835706 27.2054461,24.3050636 10.886788,27 Z"/>
  </defs><symbol id="icon-3digit" viewBox="0 0 108 67">
  <g fill="none" fill-rule="evenodd">
    <rect width="108" height="67" fill="#FFEEA1" rx="3"/>
    <rect width="108" height="14" y="11" fill="#000"/>
    <rect width="61" height="14" x="10" y="36" fill="#FFF"/>
    <path fill="#0052A9" d="M22.8015788,47.9469777 C23.4111355,47.3947887 23.89411,46.7153462 24.3784857,46.0627178 C25.612079,44.2193607 26.6798543,42.2801091 27.8209631,40.3831238 C27.9550189,40.1631571 28.0867392,39.941827 28.2198608,39.7214058 C28.0367602,40.6539918 27.8041478,41.5774883 27.5710682,42.4991668 C27.2455042,43.8039691 26.8162455,45.0846841 26.5429959,46.4008484 C26.448176,46.9544008 26.4547153,47.5156794 26.4491102,48.0737767 C26.4822738,48.2710195 26.6116586,48.4241782 26.8414685,48.3014695 C28.2516231,47.5406757 28.2282685,47.5738524 29.0643655,46.804878 C29.0849176,46.78579 29.1050026,46.766702 29.1260218,46.747614 C29.3011817,46.9384942 29.5048344,47.3479776 29.6132001,47.5274958 C29.8747723,47.9192547 30.0933719,48.0546887 30.5763464,48.0356007 C31.1256481,47.9060748 31.6768182,47.8024542 32.2396656,47.7442812 C32.552151,47.7197394 32.4769489,47.7247387 32.6535102,47.7151947 C32.5451446,47.7992728 32.4395815,47.8865323 32.3242094,47.9628844 L34.5134756,47.1080139 C35.0856649,46.7035298 35.5527582,46.1872444 36.012378,45.6677776 C36.3342052,46.3017725 36.4350974,47.0266626 36.5168387,47.7233752 C36.5495352,47.8360854 36.5616797,47.9569762 36.6125928,48.0628693 C36.8652903,48.5996061 37.4267364,48.4096349 37.8359101,48.1769429 C38.6411789,47.7206484 39.4338362,47.2439024 40.2320987,46.777155 C40.2858144,46.7389789 40.339063,46.7017119 40.3927787,46.6644448 C40.4399552,46.6676261 40.4880658,46.6685351 40.534308,46.6826238 C40.7524406,46.7512498 40.9528236,46.9298591 41.1508711,47.0389335 C41.4521463,47.2029995 41.4068382,47.1716407 41.7492176,47.3048023 C42.5507497,47.5147705 43.3639591,47.2861688 44.1720305,47.2448114 C45.3005278,47.2820785 46.4243542,47.387517 47.5533187,47.4147856 C48.0942127,47.4079685 48.6477182,47.4575064 49.1680602,47.2879867 L51,45.8627481 C50.5305713,46.1740645 49.9312906,46.087714 49.3913307,46.1190729 C48.2670372,46.1199818 47.1483488,46.0136343 46.0287262,45.9236479 C45.6298286,45.9254658 45.6190854,45.912286 45.231398,45.9663687 C44.7124574,46.038176 44.194918,46.1663384 43.668971,46.048629 C43.3905834,45.9477352 43.128077,45.8377519 42.8781821,45.6782306 C42.6707927,45.5464324 42.6862067,45.515528 42.4657387,45.4028178 C42.3863329,45.3610059 42.3003877,45.3314649 42.2181793,45.2955613 C41.0896819,45.3664596 41.9893036,45.272383 39.682797,46.5399182 C39.3684432,46.7126193 39.0737073,46.9162248 38.7827082,47.1230117 C38.6360409,47.0525678 38.5846607,46.8321466 38.5472932,46.6848962 C38.41604,45.7995758 38.2945957,44.8756249 37.7910692,44.1057416 C37.7097949,44.0280261 37.6560792,43.8366914 37.5491149,43.8730495 C35.4158999,44.6079382 35.3841375,44.8129071 34.2803961,46.1222542 C34.0753421,46.3481291 33.8679527,46.573095 33.6572937,46.7944251 C33.6264655,46.7971519 33.5895651,46.7998788 33.54379,46.8030601 C32.987949,46.854416 32.4339764,46.923042 31.8972862,47.0802909 C31.4670933,47.1611877 31.2849269,47.0811998 31.0336307,46.727617 C30.8706152,46.4644751 30.644542,45.9786396 30.429212,45.7804878 C30.3811014,45.7364036 30.3208464,45.7086805 30.2666636,45.6727769 C29.4048765,45.6364187 28.5767201,46.4458415 27.910178,47.087108 C27.9092438,46.6285411 27.9195198,46.1686108 27.9928535,45.7150432 C28.2128544,44.4238752 28.561306,43.1599758 28.8756598,41.8897137 C29.1433042,40.8307832 29.4315008,39.7741251 29.6659816,38.7074686 C29.6771918,38.6574761 29.9018637,37.5580973 29.9060675,37.3899409 C29.9088701,37.2581427 29.8626279,37.1299803 29.8406745,37 C29.3371479,37.2663233 28.8102667,37.4931071 28.331029,37.7985154 C28.2427484,37.8548705 28.2221963,37.9748523 28.1703489,38.0643842 C28.075529,38.2298137 27.98538,38.3970611 27.8919613,38.562945 C27.439815,39.3664596 26.9750572,40.1631571 26.5000234,40.9544008 C25.3626512,42.8695652 24.2771264,44.8179064 22.9902845,46.6458112 C22.5530852,47.2052719 22.1219581,47.7610968 21.6034845,48.2546584 C21.5016582,48.3510074 21.3979635,48.4446296 21.2872624,48.5300712 C21.2120603,48.5891532 20.9630996,48.7327678 21.0471764,48.6873201 C21.4698958,48.4614452 21.8837405,48.2205726 22.301789,47.9869717 L21,49 C21.4554159,48.5246175 22.2887104,48.4114528 22.8015788,47.9469777 L22.8015788,47.9469777 Z M41.8346957,45.7327678 C41.7048438,45.8082109 41.5946097,45.8691107 41.4778364,45.9345554 C41.4848428,45.9300106 41.4913821,45.9250114 41.4979214,45.9213755 C41.6090896,45.855022 41.9453968,45.669141 41.8346957,45.7327678 L41.8346957,45.7327678 Z M39.6183381,46.7785184 C39.8392732,46.6653537 39.207296,47.0725648 38.9662759,47.1348281 C38.9625391,47.135737 38.9611378,47.1330101 38.9564669,47.1339191 C39.1769349,47.0143918 39.3955346,46.8921376 39.6183381,46.7785184 L39.6183381,46.7785184 Z M37.4893269,44.1311922 C37.3875006,44.1920921 37.3048251,44.233904 37.2109393,44.2861688 C37.2212154,44.2761703 37.2398991,44.2557188 37.2469055,44.2493562 C37.3169695,44.19391 37.5663973,44.0848356 37.4893269,44.1311922 L37.4893269,44.1311922 Z M27.9470783,47.4597788 C27.9335326,47.4497803 27.9283946,47.4329647 27.9241908,47.4161491 C27.9933206,47.378882 28.060582,47.3370701 28.1315802,47.3034389 C28.2334065,47.2543554 27.9582886,47.4679594 27.9470783,47.4597788 L27.9470783,47.4597788 Z"/>
    <text fill="#000" font-family="Arial-BoldMT, Arial" font-size="11" font-weight="bold">
      <tspan x="80" y="47">123</tspan>
    </text>
    <ellipse cx="89.5" cy="43" stroke="#F94C45" stroke-width="2" rx="15.5" ry="8"/>
  </g>
</symbol><symbol id="icon-4digit" viewBox="0 0 108 67">
  <g fill="none" fill-rule="evenodd">
    <rect width="108" height="67" fill="#3BB89A" rx="3"/>
    <text fill="#FFF" font-family="Arial-BoldMT, Arial" font-size="8" font-weight="bold" letter-spacing=".4">
      <tspan x="9" y="15">AMERICAN EXPRES</tspan> <tspan x="92.789" y="15">S</tspan>
    </text>
    <text fill="#000" font-family="Arial-BoldMT, Arial" font-size="9" font-weight="bold" letter-spacing=".5">
      <tspan x="7" y="55">1234 123456 10000</tspan> <tspan x="95.582" y="55">0</tspan>
    </text>
    <text fill="#000" font-family="Arial-BoldMT, Arial" font-size="9" font-weight="bold">
      <tspan x="78" y="36">1234</tspan>
    </text>
    <ellipse cx="88.5" cy="33" stroke="#F94C45" stroke-width="2" rx="15.5" ry="8"/>
  </g>
</symbol><symbol id="icon-americanExpress" viewBox="0 0 37 27">
  <g fill="none" fill-rule="evenodd" transform="translate(.884)">
    <rect width="36.116" height="27" fill="#0072CE" rx="1.8"/>
    <path fill="#FFF" d="M33.5908426 15.5995124L31.9958684 15.5995124C31.836625 15.5995124 31.7308308 15.6054388 31.6417119 15.6652513 31.5493905 15.7241858 31.5138313 15.8116548 31.5138313 15.9271094 31.5138313 16.0644039 31.5917965 16.1577992 31.7052105 16.1981864 31.797532 16.230123 31.8967002 16.2394516 32.0424709 16.2394516L32.5167778 16.2520725C32.9953915 16.2638156 33.3148722 16.3455776 33.5096749 16.5449893 33.5451236 16.5727555 33.5664371 16.6039239 33.5908426 16.6350922L33.5908426 15.5995124zM33.5908426 17.9989276C33.3782604 18.3078675 32.9640287 18.4644776 32.4032533 18.4644776L30.7131969 18.4644776 30.7131969 17.6840613 32.3964065 17.6840613C32.5633802 17.6840613 32.6802176 17.6622215 32.750563 17.5939584 32.8115217 17.5376578 32.8540381 17.4558957 32.8540381 17.356574 32.8540381 17.2505576 32.8115217 17.1663811 32.7471396 17.1158971 32.683641 17.0603648 32.5912091 17.0351228 32.4388125 17.0351228 31.6170855 17.0073566 30.5919422 17.0603648 30.5919422 15.9086718 30.5919422 15.3807851 30.9292025 14.8251322 31.8475578 14.8251322L33.5907322 14.8251322 33.5907322 14.1010165 31.9711316 14.1010165C31.4823581 14.1010165 31.1273181 14.2173491 30.8758637 14.3982134L30.8758637 14.1010165 28.4802551 14.1010165C28.0971653 14.1010165 27.6474849 14.1953996 27.4347922 14.3982134L27.4347922 14.1010165 23.1568645 14.1010165 23.1568645 14.3982134C22.8164016 14.1541344 22.2419326 14.1010165 21.9767845 14.1010165L19.1550176 14.1010165 19.1550176 14.3982134C18.8856731 14.1389892 18.2866881 14.1010165 17.9215988 14.1010165L14.7635654 14.1010165 14.0408962 14.8782501 13.3640564 14.1010165 8.646608 14.1010165 8.646608 19.1792647 13.2752688 19.1792647 14.0199141 18.3897393 14.7213802 19.1792647 17.57451 19.1817889 17.57451 17.9871846 17.8550081 17.9871846C18.2335702 17.9930012 18.6800481 17.977856 19.0739602 17.808625L19.0739602 19.179155 21.4272733 19.179155 21.4272733 17.855597 21.5407977 17.855597C21.6856849 17.855597 21.6999307 17.8615234 21.6999307 18.0054027L21.6999307 19.1790452 28.8488782 19.1790452C29.3027551 19.1790452 29.7771724 19.0635906 30.0398909 18.8540821L30.0398909 19.1790452 32.3075085 19.1790452C32.7793858 19.1790452 33.24022 19.1133063 33.5908426 18.9449532L33.5908426 17.9989276 33.5908426 17.9989276zM30.0999661 16.5449893C30.2703632 16.7202565 30.3616908 16.941508 30.3616908 17.316077 30.3616908 18.0990175 29.8694939 18.4644776 28.9869186 18.4644776L27.2823956 18.4644776 27.2823956 17.6840613 28.9800718 17.6840613C29.1460516 17.6840613 29.2637725 17.6622215 29.3375413 17.5939584 29.3977269 17.5376578 29.440906 17.4558957 29.440906 17.356574 29.440906 17.2505576 29.3941931 17.1663811 29.3341179 17.1158971 29.2671959 17.0603648 29.1748745 17.0351228 29.0224779 17.0351228 28.2040638 17.0073566 27.1791413 17.0603648 27.1791413 15.9086718 27.1791413 15.3807851 27.5128679 14.8251322 28.4303397 14.8251322L30.1847782 14.8251322 30.1847782 15.5997319 28.5794233 15.5997319C28.4202903 15.5997319 28.3168152 15.6056583 28.2288007 15.6654708 28.1329454 15.7244053 28.0973862 15.8118743 28.0973862 15.9273289 28.0973862 16.0646234 28.1787748 16.1580187 28.2888759 16.1984059 28.3811973 16.2303425 28.4803655 16.239671 28.6294492 16.239671L29.1005535 16.252292C29.5756334 16.2638156 29.9017401 16.3454679 30.0999661 16.5449893L30.0999661 16.5449893zM22.2031708 16.3202259C22.0861126 16.3892572 21.9413358 16.3951836 21.7710491 16.3951836L20.707917 16.3951836 20.707917 15.5777823 21.7855157 15.5777823C21.9413358 15.5777823 22.0972662 15.5810748 22.2031708 15.6435212 22.3165848 15.7024558 22.3843903 15.8151667 22.3843903 15.9708988 22.3843903 16.1266309 22.3165848 16.2520725 22.2031708 16.3202259L22.2031708 16.3202259zM22.7317 16.7731549C22.9265026 16.8446007 23.085746 16.9726763 23.1603983 17.0786926 23.2839721 17.2563743 23.3018621 17.4222031 23.305396 17.7429958L23.305396 18.4644776 22.4267963 18.4644776 22.4267963 18.0091341C22.4267963 17.7901874 22.4479993 17.4659925 22.2853325 17.2967614 22.1574518 17.1663811 21.9625388 17.1352127 21.6432789 17.1352127L20.7080275 17.1352127 20.7080275 18.4644776 19.8286548 18.4644776 19.8286548 14.8250225 21.8491248 14.8250225C22.2921793 14.8250225 22.6148626 14.8444478 22.9020971 14.9967777 23.1782883 15.1626066 23.3519984 15.3897844 23.3519984 15.8049602 23.351888 16.3858551 22.9620618 16.6822837 22.7317 16.7731549L22.7317 16.7731549zM23.8372381 14.8250225L26.7580629 14.8250225 26.7580629 15.5776726 24.70877 15.5776726 24.70877 16.2393418 26.708037 16.2393418 26.708037 16.9818951 24.70877 16.9818951 24.70877 17.7060108 26.7580629 17.7093033 26.7580629 18.4644776 23.8372381 18.4644776 23.8372381 14.8250225 23.8372381 14.8250225zM17.9327525 16.5046021L16.801815 16.5046021 16.801815 15.5777823 17.9429123 15.5777823C18.2588592 15.5777823 18.4781778 15.7057482 18.4781778 16.0240167 18.4781778 16.3387733 18.269019 16.5046021 17.9327525 16.5046021L17.9327525 16.5046021zM15.9301726 18.1334783L14.5865424 16.6510056 15.9301726 15.2156147 15.9301726 18.1334783 15.9301726 18.1334783zM12.4602782 17.7060108L10.3086146 17.7060108 10.3086146 16.9818951 12.2299164 16.9818951 12.2299164 16.2393418 10.3086146 16.2393418 10.3086146 15.5776726 12.5026842 15.5776726 13.4599117 16.6382749 12.4602782 17.7060108 12.4602782 17.7060108zM19.4177361 16.0240167C19.4177361 17.035013 18.6587347 17.2437533 17.8937699 17.2437533L16.801815 17.2437533 16.801815 18.4644776 15.1008257 18.4644776 14.023227 17.2596667 12.9033327 18.4644776 9.43686178 18.4644776 9.43686178 14.8250225 12.9566715 14.8250225 14.0333868 16.0179806 15.1465447 14.8250225 17.9429123 14.8250225C18.6374212 14.8250225 19.4177361 15.0160933 19.4177361 16.0240167L19.4177361 16.0240167zM5.26152569 10.6309022L4.66254071 9.18036611 4.06697913 10.6309022 5.26152569 10.6309022zM18.4570852 10.0532998C18.3368244 10.125843 18.1945876 10.1282575 18.0241905 10.1282575L16.9610584 10.1282575 16.9610584 9.320075 18.0386571 9.320075C18.1911642 9.320075 18.3502971 9.32687936 18.4536618 9.38570416 18.5671863 9.43871232 18.6374212 9.55153302 18.6374212 9.70737483 18.6374212 9.86639933 18.5706097 9.99436522 18.4570852 10.0532998L18.4570852 10.0532998zM26.041357 10.6309022L25.4357461 9.18036611 24.8334482 10.6309022 26.041357 10.6309022 26.041357 10.6309022zM11.9038097 12.2009536L11.0066574 12.2009536 11.0033444 9.35124336 9.73436649 12.2009536 8.96597831 12.2009536 7.6936874 9.34871916 7.6936874 12.2009536 5.91373905 12.2009536 5.57747259 11.3893689 3.75533909 11.3893689 3.41564923 12.2009536 2.46515814 12.2009536 4.03230338 8.56237649 5.33253368 8.56237649 6.82094067 12.0073586 6.82094067 8.56237649 8.24927247 8.56237649 9.3945662 11.0307133 10.446655 8.56237649 11.9036992 8.56237649 11.9036992 12.2009536 11.9038097 12.2009536zM15.4794982 12.2009536L12.556023 12.2009536 12.556023 8.56237649 15.4794982 8.56237649 15.4794982 9.320075 13.4311993 9.320075 13.4311993 9.97592759 15.4303558 9.97592759 15.4303558 10.7217733 13.4311993 10.7217733 13.4311993 11.4484132 15.4794982 11.4484132 15.4794982 12.2009536 15.4794982 12.2009536zM19.6014955 9.54231421C19.6014955 10.1224408 19.2118902 10.422162 18.9848413 10.5121551 19.176331 10.5845886 19.3398813 10.7125545 19.4177361 10.8185709 19.5413099 10.9995449 19.5626233 11.1612034 19.5626233 11.4861665L19.5626233 12.2009536 18.6799377 12.2009536 18.6766247 11.7420982C18.6766247 11.5231515 18.6977173 11.2082851 18.5384738 11.0332375 18.4105932 10.9052716 18.2156801 10.8775054 17.9006167 10.8775054L16.9611688 10.8775054 16.9611688 12.2009536 16.086103 12.2009536 16.086103 8.56237649 18.0989532 8.56237649C18.5462041 8.56237649 18.8757342 8.5741195 19.1586618 8.73665593 19.4355157 8.89919235 19.6014955 9.136467 19.6014955 9.54231421L19.6014955 9.54231421zM21.0019983 12.2009536L20.1090425 12.2009536 20.1090425 8.56237649 21.0019983 8.56237649 21.0019983 12.2009536 21.0019983 12.2009536zM31.3614347 12.2009536L30.1212796 12.2009536 28.4624755 9.46999043 28.4624755 12.2009536 26.6802081 12.2009536 26.3396347 11.3893689 24.5216977 11.3893689 24.1912841 12.2009536 23.1672451 12.2009536C22.7418598 12.2009536 22.2032813 12.1074485 21.8982672 11.7985086 21.5907131 11.4895686 21.4306967 11.0711005 21.4306967 10.4094312 21.4306967 9.86980151 21.5263311 9.37648535 21.9024636 8.98666131 22.1853912 8.69626875 22.6284457 8.56237649 23.2315167 8.56237649L24.0787536 8.56237649 24.0787536 9.34202455 23.2492963 9.34202455C22.929926 9.34202455 22.74959 9.38921609 22.57588 9.55756914 22.4266859 9.71077701 22.3243151 10.0004013 22.3243151 10.3817748 22.3243151 10.7715988 22.4022803 11.0526628 22.5649472 11.2362708 22.6996746 11.3802599 22.9445031 11.4239395 23.1748649 11.4239395L23.5678936 11.4239395 24.8013123 8.56248624 26.1125859 8.56248624 27.5942565 12.0040661 27.5942565 8.56248624 28.926733 8.56248624 30.4650554 11.0965619 30.4650554 8.56248624 31.3614347 8.56248624 31.3614347 12.2009536 31.3614347 12.2009536zM2.45499836 12.915631L3.95025216 12.915631 4.28740207 12.1074485 5.04220707 12.1074485 5.37847353 12.915631 8.32050132 12.915631 8.32050132 12.2977511 8.58310941 12.9182649 10.1103886 12.9182649 10.3729967 12.2885323 10.3729967 12.915631 17.6845006 12.915631 17.6810772 11.5890001 17.822541 11.5890001C17.9215988 11.5924023 17.9505321 11.6015114 17.9505321 11.7640478L17.9505321 12.915631 21.7320665 12.915631 21.7320665 12.6068008C22.0370806 12.7692275 22.5114979 12.915631 23.1357719 12.915631L24.7266601 12.915631 25.067123 12.1074485 25.821928 12.1074485 26.1548815 12.915631 29.2205935 12.915631 29.2205935 12.1479454 29.684851 12.915631 32.1415287 12.915631 32.1415287 7.84089474 29.7102504 7.84089474 29.7102504 8.44022724 29.3697875 7.84089474 26.8750107 7.84089474 26.8750107 8.44022724 26.5623768 7.84089474 23.1925341 7.84089474C22.6284457 7.84089474 22.1326046 7.91914489 21.7320665 8.13721368L21.7320665 7.84089474 19.4065824 7.84089474 19.4065824 8.13721368C19.1517046 7.91245027 18.8043949 7.84089474 18.418213 7.84089474L9.92232232 7.84089474 9.35227061 9.15161219 8.76686881 7.84089474 6.09087251 7.84089474 6.09087251 8.44022724 5.79690164 7.84089474 3.51470703 7.84089474 2.45488793 10.2536992 2.45488793 12.915631 2.45499836 12.915631z"/>
  </g>
</symbol><symbol id="icon-discover" viewBox="0 0 37 27">
  
  <g fill="none" fill-rule="evenodd" transform="translate(.254)">
    <rect width="35.216" height="26.1" x=".45" y=".45" stroke="#E6772F" stroke-width=".9" rx="1.8"/>
    <use fill="#E6772F" xlink:href="#discover-dark-a"/>
    <path fill="#1A1919" d="M5.2558242,13.7365858 C4.95207479,13.9836554 4.56539817,14.0916942 3.94705795,14.0916942 L3.69047814,14.0916942 L3.69047814,11.1433072 L3.94705795,11.1433072 C4.56539817,11.1433072 4.93723919,11.2440742 5.2558242,11.5034366 C5.58468001,11.7714561 5.78229782,12.1849125 5.78229782,12.6125662 C5.78229782,13.0422977 5.58468001,13.4704709 5.2558242,13.7365858 L5.2558242,13.7365858 Z M4.13858935,10.388074 L2.7347231,10.388074 L2.7347231,14.8472736 L4.13003035,14.8472736 C4.87257118,14.8472736 5.40855481,14.6864273 5.87834882,14.331492 C6.43639565,13.9111101 6.76753386,13.2763818 6.76753386,12.6187992 C6.76753386,11.3024221 5.68719782,10.388074 4.13858935,10.388074 L4.13858935,10.388074 Z"/>
    <polygon fill="#1A1919" points="7.208 10.388 8.16 10.388 8.16 14.847 7.208 14.847"/>
    <path fill="#1A1919" d="M10.4979266 12.0971309C9.92333238 11.9052927 9.75538578 11.777516 9.75538578 11.5365062 9.75538578 11.256367 10.0555214 11.0439253 10.4682554 11.0439253 10.7543162 11.0439253 10.989974 11.148155 11.241038 11.4028428L11.7380307 10.8093217C11.3273888 10.4803572 10.835912 10.3137973 10.3001186 10.3137973 9.43318696 10.3137973 8.77243214 10.8628217 8.77243214 11.5887943 8.77243214 12.2051697 9.07960515 12.5178591 9.97601779 12.8147928 10.3507118 12.9333931 10.541102 13.0144223 10.6375334 13.0693074 10.8284942 13.1816747 10.9235942 13.3426941 10.9235942 13.5288188 10.9235942 13.8915453 10.6078622 14.1581797 10.1810534 14.1581797 9.72666558 14.1581797 9.35900896 13.9511052 9.13894755 13.5622346L8.52307993 14.1051991C8.96339295 14.6924872 9.49119797 14.9549662 10.2183326 14.9549662 11.2100354 14.9549662 11.9088303 14.3505373 11.9088303 13.4896893 11.9088303 12.7803381 11.5847294 12.4588186 10.4979266 12.0971309M12.2089659 12.6187992C12.2089659 13.9301554 13.3397049 14.9463092 14.7953056 14.9463092 15.2057572 14.9463092 15.5576272 14.8725519 15.9909028 14.6864273L15.9909028 13.6616165C15.6080302 14.0118771 15.2719468 14.1500421 14.8371496 14.1500421 13.8753081 14.1500421 13.1940117 13.5165259 13.1940117 12.6125662 13.1940117 11.7584707 13.8973713 11.0818427 14.7953056 11.0818427 15.248362 11.0818427 15.594526 11.2279722 15.9909028 11.5834269L15.9909028 10.5598281C15.5722726 10.3671242 15.2287714 10.287307 14.8148962 10.287307 13.3676643 10.287307 12.2089659 11.3233719 12.2089659 12.6187992"/>
    <polyline fill="#1A1919" points="23.731 13.382 22.424 10.388 21.383 10.388 23.459 14.96 23.972 14.96 26.088 10.388 25.055 10.388 23.731 13.382"/>
    <polyline fill="#1A1919" points="26.522 14.847 29.231 14.847 29.231 14.092 27.478 14.092 27.478 12.888 29.164 12.888 29.164 12.133 27.478 12.133 27.478 11.143 29.231 11.143 29.231 10.388 26.522 10.388 26.522 14.847"/>
    <path fill="#1A1919" d="M31.0967776,12.4385614 L30.819466,12.4385614 L30.819466,11.0898071 L31.112374,11.0898071 C31.7092216,11.0898071 32.0289479,11.3178314 32.0289479,11.7522376 C32.0289479,12.1985904 31.7092216,12.4385614 31.0967776,12.4385614 L31.0967776,12.4385614 Z M33.0126623,11.7037587 C33.0126623,10.8687084 32.3834807,10.388074 31.2805108,10.388074 L29.8616188,10.388074 L29.8616188,14.8472736 L30.819466,14.8472736 L30.819466,13.0544174 L30.9436666,13.0544174 L32.2634645,14.8472736 L33.4387103,14.8472736 L31.8975197,12.9678478 C32.6178071,12.8338381 33.0126623,12.3861002 33.0126623,11.7037587 L33.0126623,11.7037587 Z"/>
    <path fill="#E6772F" d="M21.5173542,12.6291876 C21.5173542,13.9130146 20.3746326,14.9535811 18.9637289,14.9535811 C17.5532057,14.9535811 16.4102938,13.9130146 16.4102938,12.6291876 C16.4102938,11.3451874 17.5532057,10.3044478 18.9637289,10.3044478 C20.3746326,10.3044478 21.5173542,11.3451874 21.5173542,12.6291876"/>
  </g>
</symbol><symbol id="icon-masterCard" viewBox="0 0 37 27">
  <g fill="none" fill-rule="evenodd" transform="translate(.63)">
    <rect width="36.116" height="27" fill="#006" rx="1.8"/>
    <path fill="#C00" d="M20.9982777,13.718431 C20.9982777,18.568646 17.1120927,22.5 12.3179103,22.5 C7.52359072,22.5 3.63713136,18.568646 3.63713136,13.718431 C3.63713136,8.86835472 7.52359072,4.93658437 12.3179103,4.93658437 C17.1120927,4.93658437 20.9982777,8.86835472 20.9982777,13.718431"/>
    <path fill="#F90" d="M23.9720755,4.93658437 C21.7286264,4.93658437 19.6851864,5.79743544 18.1443756,7.20965862 C17.8309183,7.49748792 17.5383124,7.80835465 17.268204,8.13934446 L19.0220561,8.13934446 C19.2615732,8.43439031 19.4822965,8.74456315 19.6838146,9.06944664 L16.6063084,9.06944664 C16.4222122,9.36796198 16.2548521,9.67813482 16.1061484,9.99954882 L20.1837002,9.99954882 C20.3230755,10.3005622 20.4457148,10.6105963 20.5513438,10.9292347 L15.7385048,10.9292347 C15.6383631,11.2320522 15.55386,11.5423638 15.4863672,11.8587817 L20.8032071,11.8587817 C20.9305105,12.4583104 20.9982777,13.0803215 20.9982777,13.718431 C20.9982777,14.693359 20.8412061,15.631788 20.5513438,16.5081824 L15.7385048,16.5081824 C15.8441338,16.8265432 15.9667731,17.1369936 16.1058741,17.4384233 L20.1837002,17.4384233 C20.0347222,17.7590047 19.8681851,18.0694551 19.6829915,18.3683867 L16.6063084,18.3683867 C16.8070034,18.6922988 17.0281383,19.002888 17.268204,19.2975175 L19.0215074,19.2975175 C18.7519478,19.6287848 18.4590675,19.9396516 18.1446499,20.2274809 C19.6853236,21.6397041 21.7286264,22.5 23.9720755,22.5 C28.7661207,22.5 32.6524429,18.568646 32.6524429,13.718431 C32.6524429,8.86877106 28.7661207,4.93658437 23.9720755,4.93658437"/>
    <path fill="#006" d="M10.2907948,14.6798974 C10.1918877,14.6685174 10.1482643,14.6649092 10.08036,14.6649092 C9.54617929,14.6649092 9.27607098,14.850319 9.27607098,15.2165588 C9.27607098,15.442076 9.40790139,15.5854355 9.61367207,15.5854355 C9.99764015,15.5854355 10.2743331,15.2157262 10.2907948,14.6798974 L10.2907948,14.6798974 Z M10.9762855,16.2940452 L10.19518,16.2940452 L10.2131506,15.9186458 C9.97500537,16.2150795 9.65715827,16.3566349 9.22545139,16.3566349 C8.71486575,16.3566349 8.36464406,15.9533408 8.36464406,15.3672737 C8.36464406,14.4850505 8.97358808,13.9705939 10.0190403,13.9705939 C10.1261782,13.9705939 10.2630843,13.980586 10.4032827,13.9984886 C10.432365,13.8788604 10.4400471,13.828067 10.4400471,13.7635344 C10.4400471,13.5237229 10.2759793,13.4337936 9.83576722,13.4337936 C9.37470372,13.4290751 8.99443951,13.5452338 8.83819098,13.5971374 C8.84806797,13.536907 8.96892395,12.7823613 8.96892395,12.7823613 C9.43835545,12.6427488 9.74810891,12.5905676 10.0966844,12.5905676 C10.9060491,12.5905676 11.334738,12.9580565 11.3337777,13.6527881 C11.3354239,13.8391694 11.3048327,14.0682948 11.2575054,14.3705572 C11.1757459,14.8951448 11.0001549,16.0202326 10.9762855,16.2940452 L10.9762855,16.2940452 Z"/>
    <polyline fill="#006" points="7.97 16.294 7.028 16.294 7.568 12.87 6.362 16.294 5.72 16.294 5.641 12.889 5.073 16.294 4.191 16.294 4.928 11.84 6.283 11.84 6.365 14.333 7.192 11.84 8.699 11.84 7.97 16.294"/>
    <path fill="#006" d="M25.1364632 14.6798974C25.0375561 14.6685174 24.9944814 14.6649092 24.9267143 14.6649092 24.392122 14.6649092 24.1222881 14.850319 24.1222881 15.2165588 24.1222881 15.442076 24.2535698 15.5854355 24.4598892 15.5854355 24.8435829 15.5854355 25.1204131 15.2157262 25.1364632 14.6798974L25.1364632 14.6798974zM25.8223654 16.2940452L25.0415343 16.2940452 25.0592306 15.9186458C24.8210853 16.2150795 24.5033754 16.3566349 24.0719429 16.3566349 23.5606713 16.3566349 23.2108612 15.9533408 23.2108612 15.3672737 23.2108612 14.4850505 23.8200796 13.9705939 24.8652574 13.9705939 24.9722582 13.9705939 25.1088899 13.980586 25.2492255 13.9984886 25.2784449 13.8788604 25.2859899 13.828067 25.2859899 13.7635344 25.2859899 13.5237229 25.121922 13.4337936 24.68171 13.4337936 24.2206465 13.4290751 23.8405194 13.5452338 23.6837222 13.5971374 23.6941479 13.536907 23.8152782 12.7823613 23.8152782 12.7823613 24.2844354 12.6427488 24.5944632 12.5905676 24.94249 12.5905676 25.7524034 12.5905676 26.1805436 12.9580565 26.1797205 13.6527881 26.1813667 13.8391694 26.1510498 14.0682948 26.1034482 14.3705572 26.021963 14.8951448 25.8459605 16.0202326 25.8223654 16.2940452L25.8223654 16.2940452zM15.1644047 16.2389496C14.9063682 16.3211072 14.7053989 16.3566349 14.4872819 16.3566349 14.0056414 16.3566349 13.7426665 16.0765772 13.7426665 15.5607327 13.7359446 15.4005809 13.8119426 14.9793842 13.8717533 14.5952417 13.9263511 14.2567578 14.280551 12.1231572 14.280551 12.1231572L15.2170819 12.1231572 15.1077491 12.6714762 15.6736185 12.6714762 15.5459035 13.5421806 14.9781136 13.5421806C14.8693295 14.2309447 14.7141784 15.089159 14.7123951 15.2029584 14.7123951 15.389756 14.8108906 15.4713585 15.0351807 15.4713585 15.142593 15.4713585 15.2257243 15.4602562 15.2892389 15.4372187L15.1644047 16.2389496M18.0364146 16.2096671C17.7145892 16.3091722 17.4044242 16.3577451 17.0753283 16.3566349 16.0265838 16.3552471 15.4799197 15.8015157 15.4799197 14.7405442 15.4799197 13.5023508 16.1752874 12.5905676 17.1195004 12.5905676 17.8916892 12.5905676 18.3851273 13.1009997 18.3851273 13.901204 18.3851273 14.1672448 18.3513809 14.4264855 18.2694842 14.792309L16.4041044 14.792309C16.3411386 15.3178681 16.6733896 15.5367238 17.2186819 15.5367238 17.5535394 15.5367238 17.8561595 15.4667788 18.1923887 15.3089862L18.0364146 16.2096671 18.0364146 16.2096671zM17.509916 14.0621885C17.515266 13.9865535 17.6090975 13.4154747 17.0736822 13.4154747 16.7757262 13.4154747 16.5621363 13.6455716 16.4755754 14.0621885L17.509916 14.0621885 17.509916 14.0621885zM11.5414689 13.8168258C11.5414689 14.2746604 11.7609577 14.590662 12.2589227 14.8281142 12.6404215 15.009777 12.6998207 15.0634847 12.6998207 15.2279388 12.6998207 15.453456 12.5313631 15.5558754 12.1586438 15.5558754 11.8772867 15.5558754 11.6158207 15.5111883 11.3141609 15.4125159 11.3141609 15.4125159 11.1905613 16.2113324 11.1846626 16.2494969 11.3988013 16.2964044 11.5897565 16.3401201 12.1653656 16.3566349 13.1596495 16.3566349 13.6189297 15.9736026 13.6189297 15.1457811 13.6189297 14.6481168 13.4268771 14.3559853 12.9547019 14.1361581 12.5597594 13.95283 12.5140783 13.9117512 12.5140783 13.7427174 12.5140783 13.5468991 12.6708756 13.4468389 12.975279 13.4468389 13.1603354 13.4468389 13.4128847 13.4668232 13.6525389 13.5011018L13.7865642 12.6609289C13.5426574 12.6216543 13.1725445 12.5905676 12.9571712 12.5905676 11.9030766 12.5905676 11.5380394 13.1474909 11.5414689 13.8168258M22.6197506 12.6861869C22.8814909 12.6861869 23.1259465 12.7550216 23.4619014 12.9266922L23.6162294 11.9599522C23.4776772 11.9049954 22.9919212 11.5828875 22.5803798 11.5828875 21.9498985 11.5828875 21.4162665 11.8998605 21.0416267 12.4218114 20.4945511 12.238622 20.269438 12.6088865 19.9939796 12.9780408L19.7491125 13.0357732C19.7676319 12.9143408 19.7845051 12.7937412 19.779155 12.6714762L18.913272 12.6714762C18.7952968 13.7929557 18.5858223 14.928452 18.4218916 16.0503478L18.3789542 16.2940452 19.3217954 16.2940452C19.4791414 15.2595806 19.5651535 14.5974622 19.6175564 14.1489259L19.9725795 13.9499157C20.0259427 13.749934 20.1915195 13.6827646 20.5245936 13.6909526 20.4811074 13.9271558 20.4575123 14.1759879 20.4575123 14.4334245 20.4575123 15.6187427 21.0904629 16.3566349 22.1045008 16.3566349 22.3658296 16.3566349 22.5902568 16.3219399 22.9377349 16.2261818L23.1029002 15.2111464C22.7904031 15.366441 22.5345616 15.439578 22.3025894 15.439578 21.7546907 15.439578 21.4231255 15.0303164 21.4231255 14.35432 21.4231255 13.3732856 21.9158777 12.6861869 22.6197506 12.6861869M30.59844 11.8396301L30.3889655 13.1265351C30.1317521 12.7836103 29.854922 12.5351944 29.4894732 12.5351944 29.0140058 12.5351944 28.5812015 12.8999077 28.2977867 13.4369855 27.9031185 13.354134 27.495281 13.2132725 27.495281 13.2132725L27.4950067 13.216742C27.526421 12.9165613 27.5397275 12.7339271 27.5365723 12.6714762L26.6708265 12.6714762C26.5532629 13.7929557 26.343514 14.928452 26.1797205 16.0503478L26.1363715 16.2940452 27.0794871 16.2940452C27.2067905 15.4580357 27.3040515 14.7630265 27.3757968 14.2126258 27.6981709 13.9178575 27.8594951 13.6615313 28.1844756 13.6781848 28.040299 14.0309631 27.9562073 14.4370327 27.9562073 14.8536497 27.9562073 15.7589103 28.4086285 16.3566349 29.093982 16.3566349 29.4394024 16.3566349 29.704435 16.2360352 29.962883 15.9568103L29.9184365 16.2937676 30.8101094 16.2937676 31.5279747 11.8396301 30.59844 11.8396301 30.59844 11.8396301zM29.4199227 15.457203C29.0991949 15.457203 28.9367732 15.2165588 28.9367732 14.7430422 28.9367732 14.0309631 29.2403535 13.526221 29.6676706 13.526221 29.9915537 13.526221 30.1671447 13.7754695 30.1671447 14.2356633 30.1671447 14.9538487 29.8584886 15.457203 29.4199227 15.457203L29.4199227 15.457203z"/>
    <polyline fill="#FFF" points="8.241 16.03 7.299 16.03 7.839 12.606 6.634 16.03 5.991 16.03 5.912 12.626 5.344 16.03 4.462 16.03 5.199 11.576 6.554 11.576 6.592 14.333 7.507 11.576 8.97 11.576 8.241 16.03"/>
    <path fill="#FFF" d="M10.5620005 14.416077C10.4632306 14.4044195 10.4196072 14.4012276 10.3517029 14.4012276 9.81752222 14.4012276 9.54727673 14.5863598 9.54727673 14.9523221 9.54727673 15.1775617 9.67924432 15.3217539 9.88515218 15.3217539 10.2689831 15.3217539 10.5456761 14.9520446 10.5620005 14.416077L10.5620005 14.416077zM11.2473541 16.0296697L10.4666601 16.0296697 10.4844936 15.6545479C10.2463483 15.9508427 9.9285012 16.0925369 9.49679432 16.0925369 8.9860715 16.0925369 8.63598699 15.6886877 8.63598699 15.1027594 8.63598699 14.2203975 9.2450682 13.7066347 10.2905204 13.7066347 10.397384 13.7066347 10.5342901 13.716488 10.6746257 13.734807 10.7037079 13.6149012 10.71139 13.5639691 10.71139 13.4991589 10.71139 13.2594862 10.5473222 13.1702508 10.1071101 13.1702508 9.64590947 13.1646996 9.26578244 13.2808583 9.10939673 13.3326231 9.1194109 13.2726703 9.2401297 12.5181245 9.2401297 12.5181245 9.70969838 12.3787896 10.0194518 12.3261921 10.3680274 12.3261921 11.1772548 12.3261921 11.6058066 12.6940973 11.6051207 13.3885514 11.6066297 13.5746551 11.5763128 13.8048908 11.5288483 14.1063205 11.4469516 14.6304918 11.2713606 15.7562735 11.2473541 16.0296697L11.2473541 16.0296697zM23.887298 11.6955767L23.73297 12.662178C23.3964663 12.4910625 23.1526967 12.4218114 22.8912307 12.4218114 22.1876322 12.4218114 21.6940569 13.1097428 21.6940569 14.0909159 21.6940569 14.7669123 22.0257593 15.1753412 22.573658 15.1753412 22.8057673 15.1753412 23.0621576 15.1027594 23.3739687 14.9469097L23.2083919 15.9619451C22.8614626 16.0575644 22.6368982 16.0925369 22.3757066 16.0925369 21.3609828 16.0925369 20.7289925 15.354506 20.7289925 14.1694653 20.7289925 12.5771059 21.6026948 11.4642308 22.8515856 11.4642308 23.2631269 11.4642308 23.7491573 11.6406199 23.887298 11.6955767M25.4075317 14.416077C25.3093105 14.4044195 25.26555 14.4012276 25.1977828 14.4012276 24.6638765 14.4012276 24.3934938 14.5863598 24.3934938 14.9523221 24.3934938 15.1775617 24.5253243 15.3217539 24.7310949 15.3217539 25.1147887 15.3217539 25.391756 14.9520446 25.4075317 14.416077L25.4075317 14.416077zM26.093434 16.0296697L25.31274 16.0296697 25.3304363 15.6545479C25.0922911 15.9508427 24.774444 16.0925369 24.3431486 16.0925369 23.8318771 16.0925369 23.4822041 15.6886877 23.4822041 15.1027594 23.4822041 14.2203975 24.0907366 13.7066347 25.1364632 13.7066347 25.2433267 13.7066347 25.3799585 13.716488 25.5201569 13.734807 25.5493763 13.6149012 25.5570584 13.5639691 25.5570584 13.4991589 25.5570584 13.2594862 25.3934022 13.1702508 24.9529157 13.1702508 24.4921266 13.1646996 24.1121367 13.2808583 23.9554767 13.3326231 23.9653537 13.2726703 24.0862096 12.5181245 24.0862096 12.5181245 24.5557783 12.3787896 24.8652574 12.3261921 25.2138329 12.3261921 26.0230604 12.3261921 26.4520237 12.6940973 26.4509262 13.3885514 26.4528468 13.5746551 26.4222555 13.8048908 26.3747911 14.1063205 26.2931687 14.6304918 26.1175778 15.7562735 26.093434 16.0296697L26.093434 16.0296697zM15.4354732 15.9747129C15.1777112 16.0568705 14.9764674 16.0925369 14.7586249 16.0925369 14.2768471 16.0925369 14.013735 15.8123405 14.013735 15.2970511 14.0071504 15.1363441 14.0832855 14.7158413 14.1432334 14.3312825 14.1974197 13.9925211 14.5517568 11.8591981 14.5517568 11.8591981L15.4885621 11.8591981 15.3789549 12.4073783 15.8599095 12.4073783 15.731783 13.2778051 15.2493194 13.2778051C15.1405353 13.9672631 14.9853842 14.8249223 14.9834636 14.9387217 14.9834636 15.1260744 15.0823707 15.2071218 15.3063864 15.2071218 15.4137987 15.2071218 15.4967929 15.1964358 15.5605818 15.1728432L15.4354732 15.9747129M18.3080319 15.9459854C17.9860693 16.0457681 17.6752184 16.0928145 17.3465341 16.0925369 16.2976524 16.091843 15.7513998 15.5374177 15.7513998 14.476585 15.7513998 13.2379753 16.4466303 12.3261921 17.3901575 12.3261921 18.1631693 12.3261921 18.656333 12.8366242 18.656333 13.6377999 18.656333 13.9032857 18.6220379 14.1623875 18.5411014 14.5283498L16.6754473 14.5283498C16.6122071 15.0539089 16.9448697 15.273181 17.4896133 15.273181 17.8247451 15.273181 18.127228 15.2029584 18.4638689 15.0447495L18.3080319 15.9459854 18.3080319 15.9459854zM17.7813961 13.797813C17.7864718 13.7220392 17.8807148 13.1512379 17.3454366 13.1512379 17.0472063 13.1512379 16.8336164 13.3817512 16.7467812 13.797813L17.7813961 13.797813 17.7813961 13.797813zM11.8125375 13.5524503C11.8125375 14.0111176 12.0323006 14.3264252 12.5304028 14.564155 12.9119016 14.745679 12.9710264 14.7993868 12.9710264 14.9639796 12.9710264 15.1897743 12.802706 15.2916387 12.4297124 15.2916387 12.1486296 15.2916387 11.8870265 15.2475067 11.5852295 15.1491119 11.5852295 15.1491119 11.4617671 15.9473732 11.4560055 15.9849826 11.670007 16.0324453 11.8610994 16.0757445 12.4364342 16.0925369 13.4309925 16.0925369 13.8902726 15.7096435 13.8902726 14.881822 13.8902726 14.3838801 13.6979456 14.0918874 13.2259077 13.8726153 12.830828 13.6887321 12.7854213 13.6480696 12.7854213 13.4787583 12.7854213 13.28294 12.9420813 13.1821858 13.2467591 13.1821858 13.431404 13.1821858 13.6842276 13.2030028 13.9237447 13.2371426L14.0579071 12.3971085C13.8138631 12.3581114 13.4440246 12.3261921 13.2285141 12.3261921 12.1741452 12.3261921 11.8093824 12.8832542 11.8125375 13.5524503M31.0813152 16.0296697L30.1899166 16.0296697 30.2340887 15.6925735C29.9755036 15.9719373 29.7106081 16.0925369 29.3651877 16.0925369 28.6803829 16.0925369 28.2272759 15.4955062 28.2272759 14.5892742 28.2272759 13.384388 28.929777 12.3687975 29.760679 12.3687975 30.1261277 12.3687975 30.4028207 12.5197899 30.6605827 12.8628535L30.8696458 11.5756709 31.7990433 11.5756709 31.0813152 16.0296697 31.0813152 16.0296697zM29.6909913 15.1926887C30.1301059 15.1926887 30.4382132 14.689612 30.4382132 13.9721204 30.4382132 13.5117879 30.2627594 13.2617067 29.9388764 13.2617067 29.5114221 13.2617067 29.207979 13.7665876 29.207979 14.4789442 29.207979 14.953016 29.3705378 15.1926887 29.6909913 15.1926887L29.6909913 15.1926887zM26.9423066 12.4073783C26.8244686 13.5285802 26.6148569 14.6640765 26.4509262 15.7861111L26.4079888 16.0296697 27.3505556 16.0296697C27.6877452 13.8144666 27.7688188 13.3821675 28.2977867 13.4361529 28.3818783 12.9827593 28.5386755 12.5857103 28.6554161 12.3855898 28.2607479 12.3023219 28.040299 12.5279779 27.7513969 12.9568075 27.7744432 12.7712589 27.8160089 12.5912615 27.8081896 12.4073783L26.9423066 12.4073783M19.1848893 12.4073783C19.0665026 13.5285802 18.8566165 14.6640765 18.6929602 15.7861111L18.6501599 16.0296697 19.5930011 16.0296697C19.9303279 13.8144666 20.0111272 13.3821675 20.5392719 13.4361529 20.6239122 12.9827593 20.7809839 12.5857103 20.8974501 12.3855898 20.5031934 12.3023219 20.2823329 12.5279779 19.9939796 12.9568075 20.0167516 12.7712589 20.0585916 12.5912615 20.0503608 12.4073783L19.1848893 12.4073783"/>
  </g>
</symbol><symbol id="icon-visa" viewBox="0 0 37 27">
  <g fill="none" fill-rule="evenodd">
    <rect width="36.116" height="27" fill="#26337A" rx="1.8"/>
    <polyline fill="#FFFFFE" points="13.313 17.796 14.701 9.213 16.92 9.213 15.532 17.796 13.313 17.796"/>
    <path fill="#FFFFFE" d="M23.5802764 9.42338028C23.1415695 9.25111268 22.4515928 9.06325352 21.5920725 9.06325352 19.398411 9.06325352 17.8542439 10.2280563 17.8414266 11.8959718 17.8274672 13.1297324 18.9433335 13.8177887 19.7845797 14.2278592 20.6491762 14.6481972 20.9396593 14.9171831 20.9362329 15.2930282 20.9302684 15.8678873 20.2461293 16.1312958 19.6081832 16.1312958 18.7198557 16.1312958 18.2478999 16.0016197 17.5182023 15.681169L17.2327953 15.5445211 16.9225152 17.465831C17.4399025 17.7049014 18.3990425 17.9124085 19.394477 17.9233099 21.7258292 17.9233099 23.2406815 16.7725775 23.2584481 14.9914648 23.266443 14.0131268 22.6751976 13.2715775 21.3947368 12.6593239 20.6193538 12.2612958 20.143464 11.9976338 20.1489209 11.5947887 20.1494285 11.2380845 20.5509526 10.8561549 21.4199907 10.8561549 22.1457543 10.844493 22.6711366 11.0115634 23.0805287 11.1859859L23.2797679 11.2840986 23.5802764 9.42338028M26.534727 14.7529014C26.7186108 14.2595493 27.4186129 12.3537042 27.4186129 12.3537042 27.4056687 12.3763944 27.6014815 11.8565493 27.7135377 11.534831L27.8632843 12.2751127C27.8632843 12.2751127 28.289047 14.3238169 28.3767377 14.7529014L26.534727 14.7529014 26.534727 14.7529014zM29.2720449 9.2214507L27.5573189 9.2214507C27.0254645 9.2214507 26.6273669 9.37330986 26.3943713 9.93295775L23.0993105 17.7990845 25.4297744 17.7990845C25.4297744 17.7990845 25.8099786 16.7408873 25.8962733 16.508662 26.1504619 16.508662 28.4149357 16.5130986 28.7381601 16.5130986 28.8046577 16.8126338 29.0083386 17.7990845 29.0083386 17.7990845L31.0677356 17.7990845 29.2720449 9.2214507 29.2720449 9.2214507zM11.4516865 9.21992958L9.27997939 15.0717042 9.04736447 13.8821831C8.64266782 12.5116479 7.38289243 11.0261408 5.97375111 10.2818028L7.96055915 17.7885634 10.3087896 17.787169 13.8029626 9.21992958 11.4516865 9.21992958"/>
    <path fill="#EC982D" d="M7.26398344,9.21409859 L3.68592693,9.21409859 L3.65648522,9.39194366 C6.4406307,10.1029437 8.28276825,11.8191549 9.04736447,13.8821831 L8.26982405,9.93828169 C8.13568659,9.39435211 7.74583769,9.23311268 7.26398344,9.21409859"/>
  </g>
</symbol></svg>